<svg width="73" height="43" viewBox="0 0 73 43" fill="none" xmlns="http://www.w3.org/2000/svg">
<path d="M1.584 4.444C2.208 4.396 2.844 4.372 3.492 4.372C4.148 4.372 4.712 4.532 5.184 4.852C5.664 5.172 5.904 5.636 5.904 6.244C5.904 6.7 5.776 7.124 5.52 7.516C5.272 7.908 4.972 8.204 4.62 8.404C5.188 8.58 5.664 8.884 6.048 9.316C6.432 9.748 6.624 10.232 6.624 10.768C6.624 11.52 6.384 12.092 5.904 12.484C5.432 12.876 4.78 13.072 3.948 13.072C3.124 13.072 2.336 13.04 1.584 12.976V4.444ZM4.02 12.556C4.604 12.556 5.084 12.396 5.46 12.076C5.836 11.748 6.024 11.332 6.024 10.828C6.024 10.324 5.84 9.888 5.472 9.52C5.112 9.152 4.616 8.9 3.984 8.764C3.688 8.7 3.344 8.668 2.952 8.668C2.568 8.668 2.304 8.668 2.16 8.668V12.496C2.512 12.536 3.132 12.556 4.02 12.556ZM5.328 6.232C5.328 5.792 5.144 5.452 4.776 5.212C4.416 4.972 4.008 4.852 3.552 4.852C3.104 4.852 2.64 4.868 2.16 4.9V8.176C2.264 8.176 2.46 8.176 2.748 8.176C3.036 8.176 3.46 8.2 4.02 8.248C4.38 8.056 4.688 7.78 4.944 7.42C5.2 7.06 5.328 6.664 5.328 6.232ZM8.052 26V21.704H2.16V26H1.584V17.42H2.16V21.188H8.052V17.42H8.628V26H8.052ZM5.292 31.176C4.708 30.928 4.128 30.804 3.552 30.804C2.384 30.804 1.8 31.236 1.8 32.1C1.8 32.476 1.932 32.828 2.196 33.156C2.46 33.476 2.78 33.764 3.156 34.02C3.532 34.268 3.908 34.524 4.284 34.788C4.66 35.052 4.98 35.368 5.244 35.736C5.508 36.104 5.64 36.504 5.64 36.936C5.64 37.664 5.396 38.216 4.908 38.592C4.42 38.96 3.744 39.144 2.88 39.144C2.024 39.144 1.292 38.924 0.684 38.484L0.972 38.052C1.548 38.428 2.18 38.616 2.868 38.616C3.556 38.616 4.084 38.48 4.452 38.208C4.82 37.928 5.004 37.528 5.004 37.008C5.004 36.648 4.872 36.308 4.608 35.988C4.344 35.66 4.024 35.368 3.648 35.112C3.272 34.848 2.896 34.58 2.52 34.308C2.144 34.036 1.824 33.712 1.56 33.336C1.296 32.96 1.164 32.556 1.164 32.124C1.164 31.556 1.372 31.108 1.788 30.78C2.212 30.444 2.78 30.276 3.492 30.276C4.212 30.276 4.88 30.42 5.496 30.708L5.292 31.176Z" fill="white"/>
<line x1="15" x2="15" y2="43" stroke="#E6E6E6" stroke-width="2"/>
<path d="M21.428 4.248C21.996 4.2 22.58 4.176 23.18 4.176C23.78 4.176 24.292 4.32 24.716 4.608C25.148 4.896 25.364 5.316 25.364 5.868C25.364 6.284 25.252 6.668 25.028 7.02C24.804 7.372 24.532 7.64 24.212 7.824C24.732 7.976 25.164 8.248 25.508 8.64C25.852 9.032 26.024 9.476 26.024 9.972C26.024 10.66 25.804 11.18 25.364 11.532C24.932 11.884 24.32 12.06 23.528 12.06C22.736 12.06 22.036 12.032 21.428 11.976V4.248ZM22.52 8.064L21.98 8.076V11.52C22.324 11.552 22.88 11.568 23.648 11.568C24.168 11.568 24.596 11.424 24.932 11.136C25.276 10.84 25.448 10.472 25.448 10.032C25.448 9.584 25.276 9.196 24.932 8.868C24.596 8.532 24.156 8.296 23.612 8.16C23.332 8.096 22.968 8.064 22.52 8.064ZM24.824 5.856C24.824 5.464 24.66 5.164 24.332 4.956C24.004 4.74 23.612 4.632 23.156 4.632C22.7 4.632 22.308 4.644 21.98 4.668V7.608C22.676 7.608 23.232 7.628 23.648 7.668C23.96 7.5 24.232 7.256 24.464 6.936C24.704 6.608 24.824 6.248 24.824 5.856ZM33.8512 11.196C33.3232 11.812 32.5192 12.12 31.4392 12.12C30.3592 12.12 29.5552 11.812 29.0272 11.196C28.4992 10.58 28.2352 9.728 28.2352 8.64V4.212H28.7872V8.64C28.7872 10.632 29.6712 11.628 31.4392 11.628C33.2072 11.628 34.0912 10.632 34.0912 8.64V4.212H34.6432V8.64C34.6432 9.728 34.3792 10.58 33.8512 11.196ZM39.0198 4.548C38.5878 4.548 38.2358 4.652 37.9638 4.86C37.6918 5.068 37.5558 5.36 37.5558 5.736C37.5558 6.168 37.7358 6.556 38.0958 6.9C38.3518 7.148 38.6798 7.412 39.0798 7.692C39.4878 7.964 39.7678 8.16 39.9198 8.28C40.0718 8.4 40.2558 8.564 40.4718 8.772C40.8638 9.164 41.0598 9.616 41.0598 10.128C41.0598 10.792 40.8358 11.296 40.3878 11.64C39.9478 11.976 39.3278 12.144 38.5278 12.144C37.7358 12.144 37.0718 11.936 36.5358 11.52L36.8238 11.1C37.3678 11.468 37.9438 11.652 38.5518 11.652C39.1598 11.652 39.6318 11.524 39.9678 11.268C40.3118 11.012 40.4838 10.652 40.4838 10.188C40.4838 9.788 40.3118 9.42 39.9678 9.084C39.7278 8.844 39.4038 8.584 38.9958 8.304C38.5958 8.024 38.3158 7.824 38.1558 7.704C37.9958 7.576 37.8078 7.408 37.5918 7.2C37.1838 6.792 36.9798 6.32 36.9798 5.784C36.9798 5.248 37.1678 4.828 37.5438 4.524C37.9278 4.22 38.4558 4.068 39.1278 4.068C39.7998 4.068 40.4038 4.2 40.9398 4.464L40.7358 4.908C40.2398 4.668 39.6678 4.548 39.0198 4.548ZM44.844 4.548C44.412 4.548 44.06 4.652 43.788 4.86C43.516 5.068 43.38 5.36 43.38 5.736C43.38 6.168 43.56 6.556 43.92 6.9C44.176 7.148 44.504 7.412 44.904 7.692C45.312 7.964 45.592 8.16 45.744 8.28C45.896 8.4 46.08 8.564 46.296 8.772C46.688 9.164 46.884 9.616 46.884 10.128C46.884 10.792 46.66 11.296 46.212 11.64C45.772 11.976 45.152 12.144 44.352 12.144C43.56 12.144 42.896 11.936 42.36 11.52L42.648 11.1C43.192 11.468 43.768 11.652 44.376 11.652C44.984 11.652 45.456 11.524 45.792 11.268C46.136 11.012 46.308 10.652 46.308 10.188C46.308 9.788 46.136 9.42 45.792 9.084C45.552 8.844 45.228 8.584 44.82 8.304C44.42 8.024 44.14 7.824 43.98 7.704C43.82 7.576 43.632 7.408 43.416 7.2C43.008 6.792 42.804 6.32 42.804 5.784C42.804 5.248 42.992 4.828 43.368 4.524C43.752 4.22 44.28 4.068 44.952 4.068C45.624 4.068 46.228 4.2 46.764 4.464L46.56 4.908C46.064 4.668 45.492 4.548 44.844 4.548ZM49.0963 12V4.212H49.6483V12H49.0963ZM52.5298 12V4.164H52.7938L57.9058 10.044C58.0898 10.252 58.2578 10.46 58.4098 10.668C58.5698 10.868 58.6538 10.972 58.6618 10.98C58.6458 10.788 58.6378 10.412 58.6378 9.852V4.212H59.1898V12.048H58.9258L53.7178 6.072L53.0578 5.268C53.0738 5.428 53.0818 5.804 53.0818 6.396V12H52.5298ZM62.0689 12V4.212H65.7049V4.692H62.6209V7.524H65.4049V7.992H62.6209V11.496H65.8249V12H62.0689ZM69.6058 4.548C69.1738 4.548 68.8218 4.652 68.5498 4.86C68.2778 5.068 68.1418 5.36 68.1418 5.736C68.1418 6.168 68.3218 6.556 68.6818 6.9C68.9378 7.148 69.2658 7.412 69.6658 7.692C70.0738 7.964 70.3538 8.16 70.5058 8.28C70.6578 8.4 70.8418 8.564 71.0578 8.772C71.4498 9.164 71.6458 9.616 71.6458 10.128C71.6458 10.792 71.4218 11.296 70.9738 11.64C70.5338 11.976 69.9138 12.144 69.1138 12.144C68.3218 12.144 67.6578 11.936 67.1218 11.52L67.4098 11.1C67.9538 11.468 68.5298 11.652 69.1378 11.652C69.7458 11.652 70.2178 11.524 70.5538 11.268C70.8978 11.012 71.0698 10.652 71.0698 10.188C71.0698 9.788 70.8978 9.42 70.5538 9.084C70.3138 8.844 69.9898 8.584 69.5818 8.304C69.1818 8.024 68.9018 7.824 68.7418 7.704C68.5818 7.576 68.3938 7.408 68.1777 7.2C67.7697 6.792 67.5658 6.32 67.5658 5.784C67.5658 5.248 67.7538 4.828 68.1298 4.524C68.5138 4.22 69.0418 4.068 69.7138 4.068C70.3858 4.068 70.9898 4.2 71.5258 4.464L71.3218 4.908C70.8258 4.668 70.2538 4.548 69.6058 4.548ZM27.404 25V21.064H21.992V25H21.44V17.212H21.992V20.572H27.404V17.212H27.956V25H27.404ZM30.8384 25V17.212H34.4744V17.692H31.3904V20.524H34.1744V20.992H31.3904V24.496H34.5944V25H30.8384ZM36.8033 25V17.212H37.3553V24.496H40.9313V25H36.8033ZM42.5689 25V17.26C43.1689 17.196 43.8009 17.164 44.4649 17.164C45.1369 17.164 45.7049 17.344 46.1689 17.704C46.6329 18.056 46.8649 18.592 46.8649 19.312C46.8649 20.032 46.5489 20.624 45.9169 21.088C45.2849 21.544 44.5369 21.772 43.6729 21.772C43.6329 21.772 43.5889 21.772 43.5409 21.772V21.388C43.5729 21.388 43.6009 21.388 43.6249 21.388C44.3369 21.388 44.9569 21.2 45.4849 20.824C46.0129 20.448 46.2769 19.96 46.2769 19.36C46.2769 18.76 46.0889 18.324 45.7129 18.052C45.3449 17.78 44.8569 17.644 44.2489 17.644C43.9289 17.644 43.5529 17.66 43.1209 17.692V25H42.5689ZM23.012 30.548C22.58 30.548 22.228 30.652 21.956 30.86C21.684 31.068 21.548 31.36 21.548 31.736C21.548 32.168 21.728 32.556 22.088 32.9C22.344 33.148 22.672 33.412 23.072 33.692C23.48 33.964 23.76 34.16 23.912 34.28C24.064 34.4 24.248 34.564 24.464 34.772C24.856 35.164 25.052 35.616 25.052 36.128C25.052 36.792 24.828 37.296 24.38 37.64C23.94 37.976 23.32 38.144 22.52 38.144C21.728 38.144 21.064 37.936 20.528 37.52L20.816 37.1C21.36 37.468 21.936 37.652 22.544 37.652C23.152 37.652 23.624 37.524 23.96 37.268C24.304 37.012 24.476 36.652 24.476 36.188C24.476 35.788 24.304 35.42 23.96 35.084C23.72 34.844 23.396 34.584 22.988 34.304C22.588 34.024 22.308 33.824 22.148 33.704C21.988 33.576 21.8 33.408 21.584 33.2C21.176 32.792 20.972 32.32 20.972 31.784C20.972 31.248 21.16 30.828 21.536 30.524C21.92 30.22 22.448 30.068 23.12 30.068C23.792 30.068 24.396 30.2 24.932 30.464L24.728 30.908C24.232 30.668 23.66 30.548 23.012 30.548ZM27.2642 38V30.212H30.9002V30.692H27.8162V33.524H30.6002V33.992H27.8162V37.496H31.0202V38H27.2642ZM33.2291 38V30.248C33.9171 30.192 34.5011 30.164 34.9811 30.164C35.7171 30.164 36.3251 30.356 36.8051 30.74C37.2851 31.116 37.5251 31.656 37.5251 32.36C37.5251 32.832 37.3891 33.268 37.1171 33.668C36.8451 34.068 36.5371 34.392 36.1931 34.64C37.1451 35.904 37.7331 36.66 37.9571 36.908C38.4131 37.38 38.9091 37.648 39.4451 37.712L39.4331 38.084C38.9851 38.076 38.6211 38.012 38.3411 37.892C38.0611 37.764 37.7811 37.552 37.5011 37.256C37.2291 36.96 36.6251 36.164 35.6891 34.868C35.0411 34.868 34.4051 34.848 33.7811 34.808V38H33.2291ZM35.3891 34.412C35.7011 34.412 36.0371 34.204 36.3971 33.788C36.7571 33.372 36.9371 32.888 36.9371 32.336C36.9371 31.784 36.7491 31.364 36.3731 31.076C35.9971 30.788 35.5091 30.644 34.9091 30.644C34.5891 30.644 34.2131 30.66 33.7811 30.692V34.352C34.3571 34.392 34.8931 34.412 35.3891 34.412ZM42.6871 36.368L45.2911 30.212H45.8671L42.5191 38.048H42.1951L38.8471 30.212H39.4471L42.3871 37.136C42.4271 37.016 42.5271 36.76 42.6871 36.368ZM47.4556 38V30.212H48.0076V38H47.4556ZM56.9492 37.616C56.3492 37.952 55.5132 38.12 54.4412 38.12C53.3772 38.12 52.4372 37.736 51.6212 36.968C50.8132 36.2 50.4092 35.248 50.4092 34.112C50.4092 32.968 50.7612 32.012 51.4652 31.244C52.1772 30.476 53.0932 30.092 54.2132 30.092C55.1172 30.092 56.0012 30.232 56.8652 30.512L56.7212 30.968C55.8892 30.712 55.0292 30.584 54.1412 30.584C53.2532 30.584 52.5052 30.924 51.8972 31.604C51.2972 32.276 50.9972 33.104 50.9972 34.088C50.9972 35.064 51.3452 35.896 52.0412 36.584C52.7452 37.272 53.5572 37.616 54.4772 37.616C55.3972 37.616 56.1612 37.488 56.7692 37.232L56.9492 37.616ZM58.9166 38V30.212H62.5526V30.692H59.4686V33.524H62.2526V33.992H59.4686V37.496H62.6726V38H58.9166Z" fill="white"/>
</svg>
